# Blender 3.5.1
# www.blender.org
mtllib kolotest.mtl
o Cylinder
v 0.233287 -1.188402 0.000000
v -0.249717 -1.150277 -0.012203
v 0.233280 -1.160224 -0.077419
v -0.249723 -1.127699 -0.074236
v 0.233264 -1.088875 -0.118613
v -0.249736 -1.070529 -0.107243
v 0.233245 -1.007739 -0.104306
v -0.249751 -1.005518 -0.095780
v 0.233232 -0.954781 -0.041194
v -0.249761 -0.963085 -0.045210
v 0.233232 -0.954781 0.041194
v -0.249761 -0.963085 0.020804
v 0.233245 -1.007739 0.104306
v -0.249751 -1.005518 0.071374
v 0.233264 -1.088875 0.118613
v -0.249736 -1.070529 0.082837
v 0.233280 -1.160224 0.077419
v -0.249723 -1.127699 0.049830
v -0.297810 -1.449632 -0.320143
v -0.297782 -1.566155 0.000000
v -0.297879 -1.154586 -0.490488
v -0.297958 -0.819073 -0.431328
v -0.298009 -0.600082 -0.170345
v -0.298009 -0.600082 0.170345
v -0.297958 -0.819073 0.431328
v -0.297879 -1.154586 0.490488
v -0.297810 -1.449632 0.320143
v -0.297824 -1.390055 -0.270152
v -0.297800 -1.488382 0.000000
v -0.297882 -1.141081 -0.413897
v -0.297949 -0.857959 -0.363975
v -0.297992 -0.673164 -0.143745
v -0.297992 -0.673164 0.143745
v -0.297949 -0.857959 0.363975
v -0.297882 -1.141081 0.413897
v -0.297824 -1.390055 0.270152
v -0.292015 -1.127730 -0.074236
v -0.292010 -1.150309 -0.012203
v -0.292029 -1.070561 -0.107243
v -0.292044 -1.005549 -0.095780
v -0.292054 -0.963116 -0.045210
v -0.292054 -0.963116 0.020804
v -0.292044 -1.005549 0.071374
v -0.292029 -1.070561 0.082837
v -0.292015 -1.127730 0.049830
v 0.298016 -1.566015 0.000000
v 0.297989 -1.449492 -0.320143
v 0.297920 -1.154446 -0.490488
v 0.297841 -0.818933 -0.431328
v 0.297789 -0.599942 -0.170345
v 0.297789 -0.599942 0.170345
v 0.297841 -0.818933 0.431328
v 0.297920 -1.154446 0.490488
v 0.297989 -1.449492 0.320143
v 0.297998 -1.488728 0.000000
v 0.297975 -1.390287 -0.270465
v 0.297916 -1.141026 -0.414376
v 0.297850 -0.857576 -0.364396
v 0.297806 -0.672567 -0.143911
v 0.297806 -0.672567 0.143911
v 0.297850 -0.857576 0.364396
v 0.297917 -1.141026 0.414376
v 0.297975 -1.390287 0.270465
v 0.256308 -1.188397 0.000000
v 0.256301 -1.160219 -0.077419
v 0.256284 -1.088869 -0.118613
v 0.256265 -1.007733 -0.104306
v 0.256253 -0.954776 -0.041194
v 0.256253 -0.954776 0.041194
v 0.256265 -1.007733 0.104306
v 0.256284 -1.088869 0.118613
v 0.256301 -1.160219 0.077419
v 0.274870 -1.188393 0.000000
v 0.274864 -1.160214 -0.077419
v 0.274847 -1.088865 -0.118613
v 0.274828 -1.007729 -0.104306
v 0.274815 -0.954771 -0.041194
v 0.274815 -0.954771 0.041194
v 0.274828 -1.007729 0.104306
v 0.274847 -1.088865 0.118613
v 0.274864 -1.160214 0.077419
vn 0.0002 -0.9397 -0.3420
vn 0.0001 -0.5000 -0.8660
vn -0.0000 0.1736 -0.9848
vn -0.0002 0.7660 -0.6428
vn -0.0002 1.0000 -0.0000
vn -0.0002 0.7660 0.6428
vn -0.0000 0.1736 0.9848
vn 0.0004 -0.5000 0.8660
vn 0.0001 -0.5000 0.8660
vn 0.0002 -0.9397 0.3420
vn -1.0000 -0.0002 -0.0000
vn -0.9884 0.1424 0.0519
vn -0.9874 0.0788 0.1369
vn -0.9865 -0.0287 0.1615
vn -0.9860 -0.1277 0.1069
vn -0.9864 -0.1641 -0.0000
vn -0.9874 -0.1212 -0.1015
vn -0.9884 -0.0266 -0.1494
vn -0.9890 0.0737 -0.1281
vn -0.9890 0.1388 -0.0506
vn -0.0007 1.0000 -0.0000
vn 0.0004 -0.5000 -0.8660
vn 0.0007 -0.9397 0.3420
vn -0.0006 0.7660 0.6428
vn -0.0001 0.1736 -0.9848
vn -0.0001 0.1736 0.9848
vn -0.0006 0.7660 -0.6428
vn 0.0007 -0.9397 -0.3420
vn 1.0000 0.0002 -0.0000
vn 0.9747 0.2100 0.0764
vn 0.9747 0.1119 0.1933
vn 0.9748 -0.0385 0.2199
vn 0.9748 -0.1708 0.1435
vn 0.9748 -0.2230 -0.0000
vn 0.9748 -0.1708 -0.1435
vn 0.9748 -0.0385 -0.2199
vn 0.9747 0.1119 -0.1933
vn 0.9747 0.2100 -0.0764
vt 0.750000 0.410356
vt 0.250000 0.423848
vt 0.853075 0.372840
vt 0.361748 0.383175
vt 0.907920 0.277846
vt 0.421207 0.280188
vt 0.888873 0.169822
vt 0.400557 0.163076
vt 0.804845 0.099314
vt 0.309460 0.086636
vt 0.695155 0.099314
vt 0.190540 0.086636
vt 0.611127 0.169822
vt 0.099443 0.163076
vt 0.592080 0.277846
vt 0.078793 0.280188
vt 0.646925 0.372840
vt 0.138252 0.383175
vt 0.888889 1.000000
vt 0.404269 0.433851
vt 1.000000 1.000000
vt 0.000000 1.000000
vt 0.250000 0.490000
vt 0.777778 1.000000
vt 0.486354 0.291676
vt 0.666667 1.000000
vt 0.457846 0.130000
vt 0.555556 1.000000
vt 0.332085 0.024474
vt 0.444444 1.000000
vt 0.167915 0.024474
vt 0.333333 1.000000
vt 0.042154 0.130000
vt 0.222222 1.000000
vt 0.013646 0.291676
vt 0.111111 1.000000
vt 0.095731 0.433851
vt 0.380179 0.405142
vt 0.250000 0.452523
vt 0.449446 0.285168
vt 0.425390 0.148738
vt 0.319267 0.059691
vt 0.180733 0.059691
vt 0.074610 0.148738
vt 0.050554 0.285168
vt 0.119821 0.405142
vt 0.361748 0.383175
vt 0.250000 0.423848
vt 0.421207 0.280188
vt 0.400557 0.163076
vt 0.309460 0.086636
vt 0.190540 0.086636
vt 0.099443 0.163076
vt 0.078793 0.280188
vt 0.138252 0.383175
vt 1.000000 0.500000
vt 0.000000 0.500000
vt 0.750000 0.490000
vt 0.888889 0.500000
vt 0.904269 0.433851
vt 0.777778 0.500000
vt 0.986354 0.291676
vt 0.666667 0.500000
vt 0.957846 0.130000
vt 0.555556 0.500000
vt 0.832085 0.024474
vt 0.444444 0.500000
vt 0.667915 0.024474
vt 0.333333 0.500000
vt 0.542154 0.130000
vt 0.222222 0.500000
vt 0.513646 0.291676
vt 0.111111 0.500000
vt 0.595731 0.433851
vt 0.750000 0.452758
vt 0.880330 0.405321
vt 0.949677 0.285209
vt 0.925593 0.148621
vt 0.819347 0.059470
vt 0.680653 0.059470
vt 0.574407 0.148621
vt 0.550323 0.285208
vt 0.619670 0.405321
vt 0.750000 0.410356
vt 0.853075 0.372840
vt 0.907920 0.277846
vt 0.888873 0.169822
vt 0.804845 0.099314
vt 0.695155 0.099314
vt 0.611127 0.169822
vt 0.592080 0.277846
vt 0.646925 0.372840
vt 0.750000 0.410356
vt 0.853075 0.372840
vt 0.907920 0.277846
vt 0.888873 0.169822
vt 0.804845 0.099314
vt 0.695155 0.099314
vt 0.611127 0.169822
vt 0.592080 0.277846
vt 0.646925 0.372840
s 0
f 20/21/1 47/59/1 46/56/1
f 19/19/2 48/61/2 47/59/2
f 21/24/3 49/63/3 48/61/3
f 22/26/4 50/65/4 49/63/4
f 23/28/5 51/67/5 50/65/5
f 24/30/6 52/69/6 51/67/6
f 25/32/7 53/71/7 52/69/7
f 18/18/8 44/54/8 45/55/8
f 26/34/9 54/73/9 53/71/9
f 27/36/10 46/57/10 54/73/10
f 15/15/7 70/90/7 13/13/7
f 28/38/11 20/23/11 29/39/11
f 28/38/11 21/25/11 19/20/11
f 31/41/11 21/25/11 30/40/11
f 32/42/11 22/27/11 31/41/11
f 33/43/11 23/29/11 32/42/11
f 34/44/11 24/31/11 33/43/11
f 35/45/11 25/33/11 34/44/11
f 36/46/11 26/35/11 35/45/11
f 29/39/11 27/37/11 36/46/11
f 2/2/12 28/38/12 29/39/12
f 4/4/13 30/40/13 28/38/13
f 6/6/14 31/41/14 30/40/14
f 10/10/15 31/41/15 8/8/15
f 12/12/16 32/42/16 10/10/16
f 14/14/17 33/43/17 12/12/17
f 16/16/18 34/44/18 14/14/18
f 18/18/19 35/45/19 16/16/19
f 18/18/20 29/39/20 36/46/20
f 38/48/11 42/52/11 40/50/11
f 12/12/21 41/51/21 42/52/21
f 4/4/22 39/49/22 6/6/22
f 2/2/23 45/55/23 38/48/23
f 14/14/24 42/52/24 43/53/24
f 6/6/25 40/50/25 8/8/25
f 16/16/26 43/53/26 44/54/26
f 8/8/27 41/51/27 10/10/27
f 2/2/28 37/47/28 4/4/28
f 55/75/29 47/60/29 56/76/29
f 56/76/29 48/62/29 57/77/29
f 57/77/29 49/64/29 58/78/29
f 58/78/29 50/66/29 59/79/29
f 59/79/29 51/68/29 60/80/29
f 61/81/29 51/68/29 52/70/29
f 61/81/29 53/72/29 62/82/29
f 62/82/29 54/74/29 63/83/29
f 63/83/29 46/58/29 55/75/29
f 1/1/30 56/76/30 3/3/30
f 3/3/31 57/77/31 5/5/31
f 5/5/32 58/78/32 7/7/32
f 7/7/33 59/79/33 9/9/33
f 9/9/34 60/80/34 11/11/34
f 13/13/35 60/80/35 61/81/35
f 15/15/36 61/81/36 62/82/36
f 17/17/37 62/82/37 63/83/37
f 1/1/38 63/83/38 55/75/38
f 70/90/6 78/98/6 69/89/6
f 9/9/4 67/87/4 7/7/4
f 3/3/1 64/84/1 1/1/1
f 17/17/9 71/91/9 15/15/9
f 11/11/5 68/88/5 9/9/5
f 5/5/2 65/85/2 3/3/2
f 1/1/10 72/92/10 17/17/10
f 13/13/6 69/89/6 11/11/6
f 7/7/3 66/86/3 5/5/3
f 74/94/29 78/98/29 80/100/29
f 67/87/3 75/95/3 66/86/3
f 71/91/7 79/99/7 70/90/7
f 68/88/4 76/96/4 67/87/4
f 65/85/1 73/93/1 64/84/1
f 72/92/9 80/100/9 71/91/9
f 69/89/5 77/97/5 68/88/5
f 66/86/2 74/94/2 65/85/2
f 64/84/10 81/101/10 72/92/10
f 20/21/1 19/19/1 47/59/1
f 19/19/2 21/24/2 48/61/2
f 21/24/3 22/26/3 49/63/3
f 22/26/4 23/28/4 50/65/4
f 23/28/5 24/30/5 51/67/5
f 24/30/6 25/32/6 52/69/6
f 25/32/7 26/34/7 53/71/7
f 18/18/8 16/16/8 44/54/8
f 26/34/9 27/36/9 54/73/9
f 27/36/10 20/22/10 46/57/10
f 15/15/7 71/91/7 70/90/7
f 28/38/11 19/20/11 20/23/11
f 28/38/11 30/40/11 21/25/11
f 31/41/11 22/27/11 21/25/11
f 32/42/11 23/29/11 22/27/11
f 33/43/11 24/31/11 23/29/11
f 34/44/11 25/33/11 24/31/11
f 35/45/11 26/35/11 25/33/11
f 36/46/11 27/37/11 26/35/11
f 29/39/11 20/23/11 27/37/11
f 2/2/12 4/4/12 28/38/12
f 4/4/13 6/6/13 30/40/13
f 6/6/14 8/8/14 31/41/14
f 10/10/15 32/42/15 31/41/15
f 12/12/16 33/43/16 32/42/16
f 14/14/17 34/44/17 33/43/17
f 16/16/18 35/45/18 34/44/18
f 18/18/19 36/46/19 35/45/19
f 18/18/20 2/2/20 29/39/20
f 39/49/11 37/47/11 38/48/11
f 38/48/11 45/55/11 44/54/11
f 44/54/11 43/53/11 42/52/11
f 42/52/11 41/51/11 40/50/11
f 40/50/11 39/49/11 38/48/11
f 38/48/11 44/54/11 42/52/11
f 12/12/21 10/10/21 41/51/21
f 4/4/22 37/47/22 39/49/22
f 2/2/23 18/18/23 45/55/23
f 14/14/24 12/12/24 42/52/24
f 6/6/25 39/49/25 40/50/25
f 16/16/26 14/14/26 43/53/26
f 8/8/27 40/50/27 41/51/27
f 2/2/28 38/48/28 37/47/28
f 55/75/29 46/58/29 47/60/29
f 56/76/29 47/60/29 48/62/29
f 57/77/29 48/62/29 49/64/29
f 58/78/29 49/64/29 50/66/29
f 59/79/29 50/66/29 51/68/29
f 61/81/29 60/80/29 51/68/29
f 61/81/29 52/70/29 53/72/29
f 62/82/29 53/72/29 54/74/29
f 63/83/29 54/74/29 46/58/29
f 1/1/30 55/75/30 56/76/30
f 3/3/31 56/76/31 57/77/31
f 5/5/32 57/77/32 58/78/32
f 7/7/33 58/78/33 59/79/33
f 9/9/34 59/79/34 60/80/34
f 13/13/35 11/11/35 60/80/35
f 15/15/36 13/13/36 61/81/36
f 17/17/37 15/15/37 62/82/37
f 1/1/38 17/17/38 63/83/38
f 70/90/6 79/99/6 78/98/6
f 9/9/4 68/88/4 67/87/4
f 3/3/1 65/85/1 64/84/1
f 17/17/9 72/92/9 71/91/9
f 11/11/5 69/89/5 68/88/5
f 5/5/2 66/86/2 65/85/2
f 1/1/10 64/84/10 72/92/10
f 13/13/6 70/90/6 69/89/6
f 7/7/3 67/87/3 66/86/3
f 81/101/29 73/93/29 74/94/29
f 74/94/29 75/95/29 76/96/29
f 76/96/29 77/97/29 78/98/29
f 78/98/29 79/99/29 80/100/29
f 80/100/29 81/101/29 74/94/29
f 74/94/29 76/96/29 78/98/29
f 67/87/3 76/96/3 75/95/3
f 71/91/7 80/100/7 79/99/7
f 68/88/4 77/97/4 76/96/4
f 65/85/1 74/94/1 73/93/1
f 72/92/9 81/101/9 80/100/9
f 69/89/5 78/98/5 77/97/5
f 66/86/2 75/95/2 74/94/2
f 64/84/10 73/93/10 81/101/10
