# Blender 3.5.1
# www.blender.org
mtllib kolomale.mtl
o Cylinder
v -0.254668 -0.913590 3.130493
v 0.246490 -0.913590 3.122114
v -0.254668 -1.016119 3.167811
v 0.246490 -1.021505 3.161391
v -0.254668 -1.070673 3.262302
v 0.246490 -1.078926 3.260847
v -0.254668 -1.051727 3.369753
v 0.246490 -1.058984 3.373943
v -0.254668 -0.968144 3.439887
v 0.246490 -0.971011 3.447762
v -0.254668 -0.859036 3.439887
v 0.246490 -0.856170 3.447762
v -0.254668 -0.775453 3.369753
v 0.246490 -0.768196 3.373943
v -0.254668 -0.756507 3.262302
v 0.246490 -0.748254 3.260847
v -0.254668 -0.811061 3.167811
v 0.246490 -0.805675 3.161391
v 0.296727 -1.123912 3.039348
v 0.296727 -0.913590 2.962797
v 0.296727 -1.235822 3.233182
v 0.296727 -1.196956 3.453601
v 0.296727 -1.025500 3.597470
v 0.296727 -0.801680 3.597470
v 0.296727 -0.630224 3.453601
v 0.296727 -0.591358 3.233182
v 0.296727 -0.703268 3.039348
v 0.296727 -1.088359 3.081718
v 0.296727 -0.913590 3.018108
v 0.296727 -1.181352 3.242786
v 0.296727 -1.149056 3.425946
v 0.296727 -1.006583 3.545495
v 0.296727 -0.820597 3.545495
v 0.296727 -0.678124 3.425946
v 0.296727 -0.645828 3.242786
v 0.296727 -0.738821 3.081718
v 0.305312 -1.021505 3.161391
v 0.305312 -0.913590 3.122114
v 0.305312 -1.078926 3.260847
v 0.305312 -1.058984 3.373943
v 0.305312 -0.971011 3.447762
v 0.305312 -0.856170 3.447762
v 0.305312 -0.768196 3.373943
v 0.305312 -0.748254 3.260847
v 0.305312 -0.805675 3.161391
v -0.296727 -0.913590 2.962797
v -0.296727 -1.123912 3.039348
v -0.296727 -1.235822 3.233182
v -0.296727 -1.196956 3.453601
v -0.296727 -1.025500 3.597470
v -0.296727 -0.801680 3.597470
v -0.296727 -0.630224 3.453601
v -0.296727 -0.591358 3.233182
v -0.296727 -0.703268 3.039348
v -0.296727 -0.913590 3.015532
v -0.296727 -1.090015 3.079745
v -0.296727 -1.183888 3.242339
v -0.296727 -1.151286 3.427234
v -0.296727 -1.007464 3.547915
v -0.296727 -0.819717 3.547915
v -0.296727 -0.675894 3.427234
v -0.296727 -0.643292 3.242339
v -0.296727 -0.737165 3.079745
v -0.267318 -0.913590 3.130493
v -0.267318 -1.016119 3.167811
v -0.267318 -1.070673 3.262302
v -0.267318 -1.051727 3.369753
v -0.267318 -0.968144 3.439887
v -0.267318 -0.859036 3.439887
v -0.267318 -0.775453 3.369753
v -0.267318 -0.756507 3.262302
v -0.267318 -0.811061 3.167811
v -0.305368 -0.913590 3.130493
v -0.305368 -1.016119 3.167811
v -0.305368 -1.070673 3.262302
v -0.305368 -1.051727 3.369753
v -0.305368 -0.968144 3.439887
v -0.305368 -0.859036 3.439887
v -0.305368 -0.775453 3.369753
v -0.305368 -0.756507 3.262302
v -0.305368 -0.811061 3.167811
vn -0.0000 -0.3420 -0.9397
vn -0.0000 -0.8660 -0.5000
vn -0.0000 -0.9848 0.1736
vn -0.0000 -0.6428 0.7660
vn -0.0000 -0.0000 1.0000
vn -0.0000 0.6428 0.7660
vn -0.0000 0.9848 0.1736
vn -0.0000 0.8660 -0.5000
vn -0.0000 0.3420 -0.9397
vn 1.0000 -0.0000 -0.0000
vn 0.8894 0.1564 0.4296
vn 0.8894 0.3959 0.2286
vn 0.8894 0.4502 -0.0794
vn 0.8894 0.2939 -0.3502
vn 0.8894 -0.0000 -0.4572
vn 0.8894 -0.2939 -0.3502
vn 0.8894 -0.4502 -0.0794
vn 0.8894 -0.3959 0.2286
vn 0.8894 -0.1564 0.4296
vn -1.0000 -0.0000 -0.0000
vn -0.9319 0.1241 0.3409
vn -0.9319 0.3142 0.1814
vn -0.9319 0.3573 -0.0630
vn -0.9319 0.2332 -0.2779
vn -0.9319 -0.0000 -0.3628
vn -0.9319 -0.2332 -0.2779
vn -0.9319 -0.3573 -0.0630
vn -0.9319 -0.3142 0.1814
vn -0.9319 -0.1241 0.3409
vt 0.750000 0.366997
vt 0.250000 0.373143
vt 0.825204 0.339625
vt 0.329155 0.344333
vt 0.865219 0.270316
vt 0.371272 0.271384
vt 0.851322 0.191502
vt 0.356645 0.188428
vt 0.790015 0.140059
vt 0.292117 0.134283
vt 0.709985 0.140059
vt 0.207883 0.134283
vt 0.648678 0.191502
vt 0.143355 0.188428
vt 0.634781 0.270316
vt 0.128728 0.271384
vt 0.674796 0.339625
vt 0.170845 0.344333
vt 0.888889 1.000000
vt 0.404269 0.433851
vt 1.000000 1.000000
vt 0.000000 1.000000
vt 0.250000 0.490000
vt 0.777778 1.000000
vt 0.486354 0.291676
vt 0.666667 1.000000
vt 0.457846 0.130000
vt 0.555556 1.000000
vt 0.332085 0.024474
vt 0.444444 1.000000
vt 0.167915 0.024474
vt 0.333333 1.000000
vt 0.042154 0.130000
vt 0.222222 1.000000
vt 0.013646 0.291676
vt 0.111111 1.000000
vt 0.095731 0.433851
vt 0.378191 0.402773
vt 0.250000 0.449430
vt 0.446401 0.284631
vt 0.422712 0.150285
vt 0.318209 0.062597
vt 0.181791 0.062597
vt 0.077288 0.150285
vt 0.053599 0.284631
vt 0.121809 0.402772
vt 0.329155 0.344333
vt 0.250000 0.373143
vt 0.371272 0.271384
vt 0.356645 0.188428
vt 0.292117 0.134283
vt 0.207883 0.134283
vt 0.143355 0.188428
vt 0.128728 0.271384
vt 0.170845 0.344333
vt 1.000000 0.500000
vt 0.000000 0.500000
vt 0.750000 0.490000
vt 0.888889 0.500000
vt 0.904269 0.433851
vt 0.777778 0.500000
vt 0.986354 0.291676
vt 0.666667 0.500000
vt 0.957846 0.130000
vt 0.555556 0.500000
vt 0.832085 0.024474
vt 0.444444 0.500000
vt 0.667915 0.024474
vt 0.333333 0.500000
vt 0.542154 0.130000
vt 0.222222 0.500000
vt 0.513646 0.291676
vt 0.111111 0.500000
vt 0.595731 0.433851
vt 0.750000 0.451320
vt 0.879406 0.404220
vt 0.948261 0.284959
vt 0.924348 0.149340
vt 0.818855 0.060821
vt 0.681145 0.060821
vt 0.575652 0.149340
vt 0.551739 0.284959
vt 0.620594 0.404220
vt 0.750000 0.366997
vt 0.825204 0.339625
vt 0.865219 0.270316
vt 0.851322 0.191502
vt 0.790015 0.140059
vt 0.709985 0.140059
vt 0.648678 0.191502
vt 0.634781 0.270316
vt 0.674796 0.339625
vt 0.750000 0.366997
vt 0.825204 0.339625
vt 0.865219 0.270316
vt 0.851322 0.191502
vt 0.790015 0.140059
vt 0.709985 0.140059
vt 0.648678 0.191502
vt 0.634781 0.270316
vt 0.674796 0.339625
s 0
f 20/21/1 47/59/1 46/56/1
f 19/19/2 48/61/2 47/59/2
f 21/24/3 49/63/3 48/61/3
f 22/26/4 50/65/4 49/63/4
f 23/28/5 51/67/5 50/65/5
f 24/30/6 52/69/6 51/67/6
f 25/32/7 53/71/7 52/69/7
f 16/16/8 45/55/8 18/18/8
f 26/34/8 54/73/8 53/71/8
f 27/36/9 46/57/9 54/73/9
f 3/3/1 64/84/1 1/1/1
f 28/38/10 20/23/10 29/39/10
f 30/40/10 19/20/10 28/38/10
f 31/41/10 21/25/10 30/40/10
f 32/42/10 22/27/10 31/41/10
f 33/43/10 23/29/10 32/42/10
f 34/44/10 24/31/10 33/43/10
f 35/45/10 25/33/10 34/44/10
f 36/46/10 26/35/10 35/45/10
f 29/39/10 27/37/10 36/46/10
f 4/4/11 29/39/11 2/2/11
f 6/6/12 28/38/12 4/4/12
f 8/8/13 30/40/13 6/6/13
f 8/8/14 32/42/14 31/41/14
f 12/12/15 32/42/15 10/10/15
f 12/12/16 34/44/16 33/43/16
f 16/16/17 34/44/17 14/14/17
f 18/18/18 35/45/18 16/16/18
f 2/2/19 36/46/19 18/18/19
f 38/48/10 42/52/10 40/50/10
f 10/10/5 42/52/5 12/12/5
f 4/4/2 39/49/2 6/6/2
f 18/18/9 38/48/9 2/2/9
f 12/12/6 43/53/6 14/14/6
f 6/6/3 40/50/3 8/8/3
f 14/14/7 44/54/7 16/16/7
f 8/8/4 41/51/4 10/10/4
f 2/2/1 37/47/1 4/4/1
f 56/76/20 46/58/20 47/60/20
f 56/76/20 48/62/20 57/77/20
f 57/77/20 49/64/20 58/78/20
f 58/78/20 50/66/20 59/79/20
f 60/80/20 50/66/20 51/68/20
f 61/81/20 51/68/20 52/70/20
f 62/82/20 52/70/20 53/72/20
f 62/82/20 54/74/20 63/83/20
f 55/75/20 54/74/20 46/58/20
f 1/1/21 56/76/21 3/3/21
f 3/3/22 57/77/22 5/5/22
f 5/5/23 58/78/23 7/7/23
f 9/9/24 58/78/24 59/79/24
f 9/9/25 60/80/25 11/11/25
f 13/13/26 60/80/26 61/81/26
f 13/13/27 62/82/27 15/15/27
f 17/17/28 62/82/28 63/83/28
f 17/17/29 55/75/29 1/1/29
f 71/91/7 79/99/7 70/90/7
f 17/17/8 71/91/8 15/15/8
f 11/11/5 68/88/5 9/9/5
f 5/5/2 65/85/2 3/3/2
f 1/1/9 72/92/9 17/17/9
f 13/13/6 69/89/6 11/11/6
f 7/7/3 66/86/3 5/5/3
f 15/15/7 70/90/7 13/13/7
f 9/9/4 67/87/4 7/7/4
f 74/94/20 78/98/20 80/100/20
f 68/88/4 76/96/4 67/87/4
f 65/85/1 73/93/1 64/84/1
f 72/92/8 80/100/8 71/91/8
f 69/89/5 77/97/5 68/88/5
f 66/86/2 74/94/2 65/85/2
f 64/84/9 81/101/9 72/92/9
f 70/90/6 78/98/6 69/89/6
f 67/87/3 75/95/3 66/86/3
f 20/21/1 19/19/1 47/59/1
f 19/19/2 21/24/2 48/61/2
f 21/24/3 22/26/3 49/63/3
f 22/26/4 23/28/4 50/65/4
f 23/28/5 24/30/5 51/67/5
f 24/30/6 25/32/6 52/69/6
f 25/32/7 26/34/7 53/71/7
f 16/16/8 44/54/8 45/55/8
f 26/34/8 27/36/8 54/73/8
f 27/36/9 20/22/9 46/57/9
f 3/3/1 65/85/1 64/84/1
f 28/38/10 19/20/10 20/23/10
f 30/40/10 21/25/10 19/20/10
f 31/41/10 22/27/10 21/25/10
f 32/42/10 23/29/10 22/27/10
f 33/43/10 24/31/10 23/29/10
f 34/44/10 25/33/10 24/31/10
f 35/45/10 26/35/10 25/33/10
f 36/46/10 27/37/10 26/35/10
f 29/39/10 20/23/10 27/37/10
f 4/4/11 28/38/11 29/39/11
f 6/6/12 30/40/12 28/38/12
f 8/8/13 31/41/13 30/40/13
f 8/8/14 10/10/14 32/42/14
f 12/12/15 33/43/15 32/42/15
f 12/12/16 14/14/16 34/44/16
f 16/16/17 35/45/17 34/44/17
f 18/18/18 36/46/18 35/45/18
f 2/2/19 29/39/19 36/46/19
f 39/49/10 37/47/10 38/48/10
f 38/48/10 45/55/10 44/54/10
f 44/54/10 43/53/10 42/52/10
f 42/52/10 41/51/10 40/50/10
f 40/50/10 39/49/10 38/48/10
f 38/48/10 44/54/10 42/52/10
f 10/10/5 41/51/5 42/52/5
f 4/4/2 37/47/2 39/49/2
f 18/18/9 45/55/9 38/48/9
f 12/12/6 42/52/6 43/53/6
f 6/6/3 39/49/3 40/50/3
f 14/14/7 43/53/7 44/54/7
f 8/8/4 40/50/4 41/51/4
f 2/2/1 38/48/1 37/47/1
f 56/76/20 55/75/20 46/58/20
f 56/76/20 47/60/20 48/62/20
f 57/77/20 48/62/20 49/64/20
f 58/78/20 49/64/20 50/66/20
f 60/80/20 59/79/20 50/66/20
f 61/81/20 60/80/20 51/68/20
f 62/82/20 61/81/20 52/70/20
f 62/82/20 53/72/20 54/74/20
f 55/75/20 63/83/20 54/74/20
f 1/1/21 55/75/21 56/76/21
f 3/3/22 56/76/22 57/77/22
f 5/5/23 57/77/23 58/78/23
f 9/9/24 7/7/24 58/78/24
f 9/9/25 59/79/25 60/80/25
f 13/13/26 11/11/26 60/80/26
f 13/13/27 61/81/27 62/82/27
f 17/17/28 15/15/28 62/82/28
f 17/17/29 63/83/29 55/75/29
f 71/91/7 80/100/7 79/99/7
f 17/17/8 72/92/8 71/91/8
f 11/11/5 69/89/5 68/88/5
f 5/5/2 66/86/2 65/85/2
f 1/1/9 64/84/9 72/92/9
f 13/13/6 70/90/6 69/89/6
f 7/7/3 67/87/3 66/86/3
f 15/15/7 71/91/7 70/90/7
f 9/9/4 68/88/4 67/87/4
f 81/101/20 73/93/20 74/94/20
f 74/94/20 75/95/20 76/96/20
f 76/96/20 77/97/20 78/98/20
f 78/98/20 79/99/20 80/100/20
f 80/100/20 81/101/20 74/94/20
f 74/94/20 76/96/20 78/98/20
f 68/88/4 77/97/4 76/96/4
f 65/85/1 74/94/1 73/93/1
f 72/92/8 81/101/8 80/100/8
f 69/89/5 78/98/5 77/97/5
f 66/86/2 75/95/2 74/94/2
f 64/84/9 73/93/9 81/101/9
f 70/90/6 79/99/6 78/98/6
f 67/87/3 76/96/3 75/95/3
